# xmcd CD database file
#
# Track frame offsets:
#	150
#	38836
#	91489
#	144940
#	195547
#	247311
#	305124
#
# Disc length: 4488 seconds
#
# Revision: 0
# Processed by: cddbd v1.5.2PL0 Copyright (c) Steve Scherf et al.
# Submitted via: CDex 1.70beta2
#
DISCID=61118607
DTITLE=Alex Sipiagin - Destinations Unknown
DYEAR=2011
DGENRE=Jazz
TTITLE0=Next Stop - Tsukiji
TTITLE1=Videlles
TTITLE2=Tempest in a Tea Cup
TTITLE3=Fermata Scandola
TTITLE4=Calming
TTITLE5=Fast Forward
TTITLE6=Meu Canario Vizinho Azul
EXTD=YEAR: 2011
EXTT0=
EXTT1=
EXTT2=
EXTT3=
EXTT4=
EXTT5=
EXTT6=
PLAYORDER=
